<?xml version="1.0" standalone="yes"?>

<svg version="1.1" viewBox="0.0 0.0 960.0 720.0" fill="none" stroke="none" stroke-linecap="square" stroke-miterlimit="10" xmlns="http://www.w3.org/2000/svg" xmlns:xlink="http://www.w3.org/1999/xlink"><clipPath id="p.0"><path d="m0 0l960.0 0l0 720.0l-960.0 0l0 -720.0z" clip-rule="nonzero"></path></clipPath><g clip-path="url(#p.0)"><path fill="#000000" fill-opacity="0.0" d="m0 0l960.0 0l0 720.0l-960.0 0z" fill-rule="nonzero"></path><path fill="#cfe2f3" d="m239.1076 259.89502l0 0c0 -21.682617 17.774658 -39.259842 39.700806 -39.259842l0 0c10.529297 0 20.62735 4.1362915 28.072693 11.498932c7.445343 7.3626556 11.628082 17.348541 11.628082 27.76091l0 0c0 21.682617 -17.774658 39.259827 -39.700775 39.259827l0 0c-21.926147 0 -39.700806 -17.57721 -39.700806 -39.259827z" fill-rule="nonzero"></path><path stroke="#000000" stroke-width="2.0" stroke-linejoin="round" stroke-linecap="butt" d="m239.1076 259.89502l0 0c0 -21.682617 17.774658 -39.259842 39.700806 -39.259842l0 0c10.529297 0 20.62735 4.1362915 28.072693 11.498932c7.445343 7.3626556 11.628082 17.348541 11.628082 27.76091l0 0c0 21.682617 -17.774658 39.259827 -39.700775 39.259827l0 0c-21.926147 0 -39.700806 -17.57721 -39.700806 -39.259827z" fill-rule="nonzero"></path><path fill="#cfe2f3" d="m434.1181 322.49606l0 0c0 -21.682617 17.774658 -39.259857 39.700806 -39.259857l0 0c10.529297 0 20.62735 4.136322 28.072693 11.498962c7.445343 7.3626404 11.628113 17.348541 11.628113 27.760895l0 0c0 21.682617 -17.774689 39.259857 -39.700806 39.259857l0 0c-21.926147 0 -39.700806 -17.57724 -39.700806 -39.259857z" fill-rule="nonzero"></path><path stroke="#000000" stroke-width="2.0" stroke-linejoin="round" stroke-linecap="butt" d="m434.1181 322.49606l0 0c0 -21.682617 17.774658 -39.259857 39.700806 -39.259857l0 0c10.529297 0 20.62735 4.136322 28.072693 11.498962c7.445343 7.3626404 11.628113 17.348541 11.628113 27.760895l0 0c0 21.682617 -17.774689 39.259857 -39.700806 39.259857l0 0c-21.926147 0 -39.700806 -17.57724 -39.700806 -39.259857z" fill-rule="nonzero"></path><path fill="#cfe2f3" d="m251.58792 434.67453l0 0c0 -21.682587 17.774658 -39.259827 39.700806 -39.259827l0 0c10.529297 0 20.62735 4.1362915 28.072693 11.498932c7.445343 7.3626404 11.628082 17.348541 11.628082 27.760895l0 0c0 21.682617 -17.774658 39.259857 -39.700775 39.259857l0 0c-21.926147 0 -39.700806 -17.57724 -39.700806 -39.259857z" fill-rule="nonzero"></path><path stroke="#000000" stroke-width="2.0" stroke-linejoin="round" stroke-linecap="butt" d="m251.58792 434.67453l0 0c0 -21.682587 17.774658 -39.259827 39.700806 -39.259827l0 0c10.529297 0 20.62735 4.1362915 28.072693 11.498932c7.445343 7.3626404 11.628082 17.348541 11.628082 27.760895l0 0c0 21.682617 -17.774658 39.259857 -39.700775 39.259857l0 0c-21.926147 0 -39.700806 -17.57724 -39.700806 -39.259857z" fill-rule="nonzero"></path><path fill="#000000" fill-opacity="0.0" d="m278.8084 299.15485l12.472443 96.25198" fill-rule="nonzero"></path><path stroke="#000000" stroke-width="2.0" stroke-linejoin="round" stroke-linecap="butt" d="m278.8084 299.15485l12.472443 96.25198" fill-rule="nonzero"></path><path fill="#000000" fill-opacity="0.0" d="m318.5092 259.89502l127.24411 34.834625" fill-rule="nonzero"></path><path stroke="#000000" stroke-width="2.0" stroke-linejoin="round" stroke-linecap="butt" d="m318.5092 259.89502l127.24411 34.834625" fill-rule="nonzero"></path><path fill="#000000" fill-opacity="0.0" d="m244.40945 171.17586l56.472443 0l0 44.125977l-56.472443 0z" fill-rule="nonzero"></path><path fill="#000000" d="m254.92508 198.09586l0 -13.59375l1.8125 0l0 5.578125l7.0625 0l0 -5.578125l1.796875 0l0 13.59375l-1.796875 0l0 -6.40625l-7.0625 0l0 6.40625l-1.8125 0zm19.957306 -3.171875l1.71875 0.21875q-0.40625 1.5 -1.515625 2.34375q-1.09375 0.828125 -2.8125 0.828125q-2.15625 0 -3.421875 -1.328125q-1.265625 -1.328125 -1.265625 -3.734375q0 -2.484375 1.265625 -3.859375q1.28125 -1.375 3.328125 -1.375q1.984375 0 3.234375 1.34375q1.25 1.34375 1.25 3.796875q0 0.140625 -0.015625 0.4375l-7.34375 0q0.09375 1.625 0.921875 2.484375q0.828125 0.859375 2.0625 0.859375q0.90625 0 1.546875 -0.46875q0.65625 -0.484375 1.046875 -1.546875zm-5.484375 -2.703125l5.5 0q-0.109375 -1.234375 -0.625 -1.859375q-0.796875 -0.96875 -2.078125 -0.96875q-1.140625 0 -1.9375 0.78125q-0.78125 0.765625 -0.859375 2.046875zm9.031982 9.671875l-0.171875 -1.5625q0.546875 0.140625 0.953125 0.140625q0.546875 0 0.875 -0.1875q0.34375 -0.1875 0.5625 -0.515625q0.15625 -0.25 0.5 -1.25q0.046875 -0.140625 0.15625 -0.40625l-3.734375 -9.875l1.796875 0l2.046875 5.71875q0.40625 1.078125 0.71875 2.28125q0.28125 -1.15625 0.6875 -2.25l2.09375 -5.75l1.671875 0l-3.75 10.03125q-0.59375 1.625 -0.9375 2.234375q-0.4375 0.828125 -1.015625 1.203125q-0.578125 0.390625 -1.375 0.390625q-0.484375 0 -1.078125 -0.203125z" fill-rule="nonzero"></path><path fill="#000000" fill-opacity="0.0" d="m451.7638 237.83202l56.472412 0l0 44.12599l-56.472412 0z" fill-rule="nonzero"></path><path fill="#000000" d="m462.27942 264.752l0 -13.59375l1.8125 0l0 5.578125l7.0625 0l0 -5.578125l1.796875 0l0 13.59375l-1.796875 0l0 -6.40625l-7.0625 0l0 6.40625l-1.8125 0zm19.957306 -3.171875l1.71875 0.21875q-0.40625 1.5 -1.515625 2.34375q-1.09375 0.828125 -2.8125 0.828125q-2.15625 0 -3.421875 -1.328125q-1.265625 -1.328125 -1.265625 -3.734375q0 -2.484375 1.265625 -3.859375q1.28125 -1.375 3.328125 -1.375q1.984375 0 3.234375 1.34375q1.25 1.34375 1.25 3.796875q0 0.140625 -0.015625 0.4375l-7.34375 0q0.09375 1.625 0.921875 2.484375q0.828125 0.859375 2.0625 0.859375q0.90625 0 1.546875 -0.46875q0.65625 -0.484375 1.046875 -1.546875zm-5.484375 -2.703125l5.5 0q-0.109375 -1.234375 -0.625 -1.859375q-0.796875 -0.96875 -2.078125 -0.96875q-1.140625 0 -1.9375 0.78125q-0.78125 0.765625 -0.859375 2.046875zm9.031982 9.671875l-0.171875 -1.5625q0.546875 0.140625 0.953125 0.140625q0.546875 0 0.875 -0.1875q0.34375 -0.1875 0.5625 -0.515625q0.15625 -0.25 0.5 -1.25q0.046875 -0.140625 0.15625 -0.40625l-3.734375 -9.875l1.796875 0l2.046875 5.71875q0.40625 1.078125 0.71875 2.28125q0.28125 -1.15625 0.6875 -2.25l2.09375 -5.75l1.671875 0l-3.75 10.03125q-0.59375 1.625 -0.9375 2.234375q-0.4375 0.828125 -1.015625 1.203125q-0.578125 0.390625 -1.375 0.390625q-0.484375 0 -1.078125 -0.203125z" fill-rule="nonzero"></path><path fill="#000000" fill-opacity="0.0" d="m266.7034 484.6483l56.472443 0l0 44.126007l-56.472443 0z" fill-rule="nonzero"></path><path fill="#000000" d="m277.21902 511.5683l0 -13.59375l1.8125 0l0 5.578125l7.0625 0l0 -5.578125l1.796875 0l0 13.59375l-1.796875 0l0 -6.40625l-7.0625 0l0 6.40625l-1.8125 0zm19.957336 -3.171875l1.71875 0.21875q-0.40625 1.5 -1.515625 2.34375q-1.09375 0.828125 -2.8125 0.828125q-2.15625 0 -3.421875 -1.328125q-1.265625 -1.328125 -1.265625 -3.734375q0 -2.484375 1.265625 -3.859375q1.28125 -1.375 3.328125 -1.375q1.984375 0 3.234375 1.34375q1.25 1.34375 1.25 3.796875q0 0.140625 -0.015625 0.4375l-7.34375 0q0.09375 1.625 0.921875 2.484375q0.828125 0.859375 2.0625 0.859375q0.90625 0 1.546875 -0.46875q0.65625 -0.484375 1.046875 -1.546875zm-5.484375 -2.703125l5.5 0q-0.109375 -1.234375 -0.625 -1.859375q-0.796875 -0.96875 -2.078125 -0.96875q-1.140625 0 -1.9375 0.78125q-0.78125 0.765625 -0.859375 2.046875zm9.031952 9.671875l-0.171875 -1.5625q0.546875 0.140625 0.953125 0.140625q0.546875 0 0.875 -0.1875q0.34375 -0.1875 0.5625 -0.515625q0.15625 -0.25 0.5 -1.25q0.046875 -0.140625 0.15625 -0.40625l-3.734375 -9.875l1.796875 0l2.046875 5.71875q0.40625 1.078125 0.71875 2.28125q0.28125 -1.15625 0.6875 -2.25l2.09375 -5.75l1.671875 0l-3.75 10.03125q-0.59375 1.625 -0.9375 2.234375q-0.4375 0.828125 -1.015625 1.203125q-0.578125 0.390625 -1.375 0.390625q-0.484375 0 -1.078125 -0.203125z" fill-rule="nonzero"></path></g></svg>

