<svg xmlns="http://www.w3.org/2000/svg" xmlns:xlink="http://www.w3.org/1999/xlink" width="1071px" height="560px" version="1.1">
	<defs/>
	<g width="1071px" height="560px" fill="#000000" font-family="Comic Sans MS" font-weight="bold" text-anchor="middle" font-size="36px">
		<g id="mi" class="layer">
			<g class="content">
				<path d="M 343 185 L 398 185 Q 408 185 408 175 L 408 105 Q 408 95 418 95 L 472 95" fill="none" stroke="#0000ff" stroke-width="4" stroke-miterlimit="10" />
				<path d="M 552 95 L 622 95 Q 632 95 632 105 L 632 195 Q 632 205 642 205 L 712 205" fill="none" stroke="#0000ff" stroke-width="4" stroke-miterlimit="10" />
				<path d="M 512 135 L 512 160 Q 512 170 502 170 L 482 170 Q 472 170 472 180 L 472 205" fill="none" stroke="#0000ff" stroke-width="4" stroke-miterlimit="10" />
				<path d="M 472 245 L 472 250 Q 472 255 471 259 L 471 263" fill="none" stroke="#0000ff" stroke-width="4" stroke-miterlimit="10" />
				<ellipse cx="512" cy="95" rx="40" ry="40" fill="#3399ff" stroke="#0000ff" stroke-width="8" />
				<text x="513" y="40">Me</text>
				<text x="276" y="119">Experience</text>
				<ellipse cx="293" cy="185" rx="50" ry="50" fill="#ffffff" stroke="#0000ff" stroke-width="8" />
				<text x="472" y="241">Education</text>
				<ellipse cx="471" cy="313" rx="50" ry="50" fill="#ffffff" stroke="#0000ff" stroke-width="8" />
				<text x="762" y="131">Interests</text>
				<ellipse cx="762" cy="205" rx="50" ry="50" fill="#ffffff" stroke="#0000ff" stroke-width="8" />
			</g>
			<g class="children">
				<g id="experience" class="layer">
					<g class="content">				
						
						<ellipse cx="293" cy="185" rx="40" ry="40" fill="#cda2be" stroke="#b5739d" stroke-width="8" />
						<path d="M 100 247 L 159 247 Q 169 247 169 237 L 169 195 Q 169 185 179 185 L 253 185" fill="none" stroke="#b5739d" stroke-width="4" stroke-miterlimit="10" />
						<path d="M 293 225 L 293 254 Q 293 264 283 264 L 211 264 Q 201 264 201 274 L 201 302" fill="none" stroke="#b5739d" stroke-width="4" stroke-miterlimit="10" />
						<path d="M 201 340 L 201 345 Q 201 350 200 354 L 200 357" fill="none" stroke="#b5739d" stroke-width="4" stroke-miterlimit="10" />
						<text x="276" y="119">Experience</text>
						<text x="65" y="185">Job</text>
						<ellipse cx="60" cy="247" rx="50" ry="50" fill="#ffffff" stroke="#b5739d" stroke-width="8" />
						<text x="201" y="325">Projects</text>
						<ellipse cx="200" cy="397" rx="50" ry="50" fill="#ffffff" stroke="#b5739d" stroke-width="8" />
					</g>
					<g class="children">
						<g id="job" class="layer">
							<g class="content">
								<text x="65" y="185">Job</text>
								<ellipse cx="60" cy="247" rx="40" ry="40" fill="#88de26" stroke="#7bc923" stroke-width="8" />
							</g>
							
						</g>			
						<g id="projects" class="layer">
							<g class="content">
								<text x="201" y="325">Projects</text>
								<ellipse cx="200" cy="397" rx="40" ry="40" fill="#ff9999" stroke="#ff6666" stroke-width="8" />
							</g>
						</g>
					</g>
				</g>
				<g id="education" class="layer">
					<g class="content">
						<ellipse cx="471" cy="313" rx="40" ry="40" fill="#f2ce24" stroke="#ebbe2a" stroke-width="8" />
						<path d="M 392 499 L 461 499 Q 471 499 471 489 L 471 354" fill="none" stroke="#ebbe2a" stroke-width="4" stroke-miterlimit="10" />
						<path d="M 499 343 L 551 343 Q 561 343 561 353 L 561 451 Q 561 461 571 461 L 611 461" fill="none" stroke="#ebbe2a" stroke-width="4" stroke-miterlimit="10" />
						<text x="472" y="241">Education</text>
						<text x="353" y="435">University</text>
						<ellipse cx="352" cy="499" rx="50" ry="50" fill="#ffffff" stroke="#ebbe2a" stroke-width="8" />
						<text x="655" y="395">Online</text>
						<ellipse cx="651" cy="461" rx="50" ry="50" fill="#ffffff" stroke="#ebbe2a" stroke-width="8" />
					</g>
					<g class="children">
						<g id="university" class="layer">
							<g class="content">
								<text x="353" y="435">University</text>
								<ellipse cx="352" cy="499" rx="40" ry="40" fill="#d6b656" stroke="#ba9e4b" stroke-width="8" />
							</g>
							
						</g>
						<g id="online" class="layer">
							<g class="content">
								<text x="655" y="395">Online</text>
								<ellipse cx="651" cy="461" rx="40" ry="40" fill="#9ac7bf" stroke="#67ab9f" stroke-width="8" />
								
							</g>
							
						</g>
					</g>
				</g>
				
				
				<g id="interests" class="layer">
					<g class="content">
						
						<ellipse cx="762" cy="205" rx="40" ry="40" fill="#00ee66" stroke="#00cc66" stroke-width="8" />
						<path d="M 802 205 L 866 205 Q 876 205 876 215 L 876 271 Q 876 281 886 281 L 949 281" fill="none" stroke="#00cc66" stroke-width="4" stroke-miterlimit="10" />
						<path d="M 842 370 L 842 375 Q 842 380 842 384 L 842 387" fill="none" stroke="#00cc66" stroke-width="4" stroke-miterlimit="10" />
						<path d="M 762 245 L 762 273 Q 762 283 772 283 L 832 283 Q 842 283 842 293 L 842 321" fill="none" stroke="#00cc66" stroke-width="4" stroke-miterlimit="10" />
						<text x="762" y="131">Interests</text>
						<text x="842" y="362">Music</text>
						<ellipse cx="842" cy="427" rx="50" ry="50" fill="#ffffff" stroke="#00cc66" stroke-width="8" />
						<text x="989" y="210">Sport</text>
						<ellipse cx="989" cy="281" rx="50" ry="50" fill="#ffffff" stroke="#00cc66" stroke-width="8" />
					</g>
					<g class="children">
						<g id="music" class="layer">
							<g class="content">
								<text x="842" y="362">Music</text>
								<ellipse cx="842" cy="427" rx="40" ry="40" fill="#ff99cc" stroke="#ff66b3" stroke-width="8" />
								
							</g>
								
						</g>
						<g id="sport" class="layer">
							<g class="content">
								<text x="989" y="210">Sport</text>
								<ellipse cx="989" cy="281" rx="40" ry="40" fill="#88e3e3" stroke="#7dd1d1" stroke-width="8" />
							</g>
							
						</g>
					</g>
				</g>
			</g>
		</g>
	</g>
</svg>