<svg xmlns="http://www.w3.org/2000/svg" xmlns:xlink="http://www.w3.org/1999/xlink" width="748px" height="938px" version="1.1"><defs/><g transform="translate(0.5,0.5)"><ellipse cx="500" cy="674" rx="64" ry="64" fill="#ffffff" stroke="#0000ff" pointer-events="none"/><ellipse cx="627" cy="254" rx="59" ry="59" fill="#ffffff" stroke="#ffb366" stroke-width="2" pointer-events="none"/><ellipse cx="81" cy="217" rx="59" ry="59" fill="#ffffff" stroke="#ffb366" stroke-width="2" pointer-events="none"/><rect x="22" y="2" width="75" height="45" fill="none" stroke="none" pointer-events="none"/><g fill="#B5739D" font-family="Helvetica" text-anchor="middle" font-size="24px"><text x="60" y="35">Client</text></g><ellipse cx="58" cy="91" rx="40" ry="40" fill="#ffffff" stroke="#b5739d" stroke-width="2" pointer-events="none"/><ellipse cx="603" cy="127" rx="40" ry="40" fill="#ffffff" stroke="#ea6b66" stroke-width="2" pointer-events="none"/><rect x="568" y="37" width="90" height="30" fill="none" stroke="none" pointer-events="none"/><g fill="#EA6B66" font-family="Helvetica" text-anchor="middle" font-size="24px"><text x="613" y="62">Service</text></g><ellipse cx="81" cy="218" rx="50" ry="50" fill="#ffffff" stroke="#b5739d" stroke-width="2" pointer-events="none"/><ellipse cx="627" cy="254" rx="50" ry="50" fill="#ffffff" stroke="#ea6b66" stroke-width="2" pointer-events="none"/><ellipse cx="81" cy="219" rx="40" ry="40" fill="#ffffff" stroke="#6600cc" stroke-width="2" pointer-events="none"/><ellipse cx="627" cy="256" rx="40" ry="40" fill="#ffffff" stroke="#cc0000" stroke-width="2" pointer-events="none"/><path d="M 69 129 L 81 168" fill="none" stroke="#c3abd0" stroke-width="2" stroke-miterlimit="10" pointer-events="none"/><path d="M 615 165 L 627 204" fill="none" stroke="#000000" stroke-miterlimit="10" pointer-events="none"/><rect x="568" y="321" width="178" height="38" fill="none" stroke="none" pointer-events="none"/><g fill="#EA6B66" font-family="Helvetica" text-anchor="middle" font-size="24px"><text x="657" y="350">MessageService</text></g><rect x="2" y="289" width="155" height="43" fill="none" stroke="none" pointer-events="none"/><g fill="#B5739D" font-family="Helvetica" text-anchor="middle" font-size="24px"><text x="80" y="321">MessageClient</text></g><ellipse cx="321" cy="419" rx="48" ry="49" fill="#ffffff" stroke="#ffb366" stroke-width="2" pointer-events="none"/><path d="M 126 255 L 284 388" fill="none" stroke="#000000" stroke-miterlimit="10" pointer-events="none"/><path d="M 365 399 L 585 296" fill="none" stroke="#000000" stroke-miterlimit="10" pointer-events="none"/><rect x="269" y="330" width="107" height="29" fill="none" stroke="none" pointer-events="none"/><g fill="#000000" font-family="Helvetica" text-anchor="middle" font-size="24px"><text x="323" y="355">Messager</text></g><ellipse cx="386" cy="531" rx="48" ry="49" fill="#ffffff" stroke="#ffb366" stroke-width="2" pointer-events="none"/><path d="M 345 461 L 362 489" fill="none" stroke="#000000" stroke-miterlimit="10" pointer-events="none"/><ellipse cx="585" cy="485" rx="48" ry="49" fill="#ffffff" stroke="#ffb366" stroke-width="2" pointer-events="none"/><path d="M 368 431 L 538 473" fill="none" stroke="#000000" stroke-miterlimit="10" pointer-events="none"/><rect x="286" y="590" width="133" height="34" fill="none" stroke="none" pointer-events="none"/><g fill="#000000" font-family="Helvetica" text-anchor="middle" font-size="24px"><text x="353" y="617">getMessage</text></g><rect x="547" y="394" width="133" height="34" fill="none" stroke="none" pointer-events="none"/><g fill="#000000" font-family="Helvetica" text-anchor="middle" font-size="24px"><text x="614" y="421">deliver</text></g><ellipse cx="501" cy="675" rx="54" ry="54" fill="#ffffff" stroke="#ffb366" stroke-width="2" pointer-events="none"/><path d="M 416 569 L 462 626" fill="none" stroke="#000000" stroke-miterlimit="10" pointer-events="none"/><path d="M 467 632 L 460 629 L 465 624 Z" fill="#000000" stroke="#000000" stroke-miterlimit="10" pointer-events="none"/><path d="M 569 540 L 539 637" fill="none" stroke="#000000" stroke-miterlimit="10" pointer-events="none"/><path d="M 571 533 L 572 541 L 565 539 Z" fill="#000000" stroke="#000000" stroke-miterlimit="10" pointer-events="none"/><ellipse cx="500" cy="675" rx="40" ry="40" fill="#ffffff" stroke="#ff9999" stroke-width="2" pointer-events="none"/><rect x="574" y="619" width="108" height="33" fill="none" stroke="none" pointer-events="none"/><g fill="#000000" font-family="Helvetica" text-anchor="middle" font-size="24px"><text x="628" y="646">Message</text></g><ellipse cx="146" cy="517" rx="48" ry="49" fill="#ffffff" stroke="#ffb366" stroke-width="2" pointer-events="none"/><path d="M 279 443 L 188 494" fill="none" stroke="#000000" stroke-miterlimit="10" pointer-events="none"/><rect x="54" y="428" width="133" height="34" fill="none" stroke="none" pointer-events="none"/><g fill="#000000" font-family="Helvetica" text-anchor="middle" font-size="24px"><text x="121" y="455">getAddress</text></g><ellipse cx="338" cy="821" rx="47" ry="47.5" fill="#ffffff" stroke="#0000ff" pointer-events="none"/><ellipse cx="184" cy="697" rx="64" ry="64" fill="#ffffff" stroke="#0000ff" pointer-events="none"/><path d="M 295 786 L 234 737" fill="none" stroke="#000000" stroke-miterlimit="10" pointer-events="none"/><path d="M 300 790 L 293 789 L 297 783 Z" fill="#000000" stroke="#000000" stroke-miterlimit="10" pointer-events="none"/><ellipse cx="186" cy="699" rx="55" ry="53.5" fill="#ffffff" stroke="#ffb366" stroke-width="2" pointer-events="none"/><path d="M 156 565 L 173 638" fill="none" stroke="#000000" stroke-miterlimit="10" pointer-events="none"/><path d="M 174 645 L 169 639 L 176 638 Z" fill="#000000" stroke="#000000" stroke-miterlimit="10" pointer-events="none"/><ellipse cx="186" cy="698" rx="44.5" ry="42" fill="#ffffff" stroke="#009900" stroke-width="2" pointer-events="none"/><rect x="60" y="610" width="99" height="30" fill="none" stroke="none" pointer-events="none"/><g fill="#000000" font-family="Helvetica" text-anchor="middle" font-size="24px"><text x="110" y="635">Address</text></g><path d="M 452 716 L 378 782" fill="none" stroke="#000000" stroke-miterlimit="10" pointer-events="none"/><path d="M 372 786 L 375 779 L 380 784 Z" fill="#000000" stroke="#000000" stroke-miterlimit="10" pointer-events="none"/><rect x="305" y="729" width="66" height="32" fill="none" stroke="none" pointer-events="none"/><g fill="#000000" font-family="Helvetica" text-anchor="middle" font-size="24px"><text x="338" y="755">send</text></g><ellipse cx="461" cy="889" rx="47" ry="47.5" fill="#ffffff" stroke="#0000ff" pointer-events="none"/><path d="M 379 843 L 420 866" fill="none" stroke="#000000" stroke-miterlimit="10" pointer-events="none"/><rect x="432" y="804" width="108" height="33" fill="none" stroke="none" pointer-events="none"/><g fill="#000000" font-family="Helvetica" text-anchor="middle" font-size="24px"><text x="486" y="831">Postman</text></g></g></svg>